<svg height="273.861279" viewBox="0 0 100 75.346535" width="365.148372" xmlns="http://www.w3.org/2000/svg"><path d="m.20000090759.19999781107h99.59999892v74.94653650378h-99.59999892z" fill="#9d0a0e" fill-rule="evenodd"/><g fill="#fff"><g transform="matrix(.1112791074 0 0 .1112791074 -4.14304443772 13.7497140439)"><path d="m509.03032 114.50075c-.0121 3.19225-.99153 6.40867-3.84521 8.90564-2.84763 2.50301-7.77505 4.40748-15.93704 4.40748h-16.42677v-26.34208h15.69521c7.32161 0 12.51506 1.4873 15.77381 3.80289 3.24666 2.33372 4.71581 5.399 4.74 9.22607"/><path d="m495.72325 82.959185c3.05923-2.200715 4.53444-5.32041 4.55258-9.993906-.0121-3.210384-.93108-5.961277-3.24062-8.010844-2.31558-2.055613-6.24543-3.51268-12.59365-3.51268h-11.62026v24.963604h7.97457c6.90444 0 11.85-1.227322 14.92738-3.446174"/><path d="m526.75091 116.43544c.0423-12.17648-8.06526-21.432783-21.04585-24.987784 3.50664-1.789592 6.27567-3.978215 8.3071-6.644466 2.70857-3.579184 4.00844-7.962476 3.9903-13.077325.0181-6.275665-2.45464-12.678294-7.75691-17.472709-5.30832-4.788368-13.36149-7.889925-24.35297-7.883879h-30.35656v96.529163h35.61047.0181c12.70853 0 21.63231-3.44618 27.37593-8.55498 5.74967-5.08462 8.21641-11.75932 8.21036-17.90802m33.83901 45.16907h-142.42373v-134.025953h142.42373z"/><path d="m331.61884 82.959185c3.05319-2.200715 4.53444-5.32041 4.55862-9.993906-.006-3.210384-.93107-5.961277-3.24061-8.010844-2.32163-2.055613-6.25148-3.51268-12.60574-3.51268h-11.60817v24.963604h7.97457c6.8984 0 11.84396-1.227322 14.92133-3.446174"/><path d="m340.18591 105.27468c-3.25271-2.31559-8.4522-3.80289-15.76776-3.80289h-15.69521v26.34208h16.42677c8.16199 0 13.07732-1.90447 15.931-4.40748 2.85367-2.49697 3.83916-5.71339 3.8452-8.90564-.0242-3.82707-1.49334-6.89235-4.74-9.22607"/><path d="m362.65255 116.43544c.0423-12.17648-8.07735-21.432783-21.0398-24.987784 3.49454-1.789592 6.26357-3.978215 8.28895-6.644466 2.72067-3.579184 4.00845-7.962476 4.0024-13.077325.006-6.275665-2.46069-12.678294-7.76296-17.472709-5.30227-4.788368-13.35544-7.889925-24.34692-7.883879h-30.36261v96.529163h35.60442.0242c12.71457 0 21.6323-3.44618 27.37592-8.55498 5.74363-5.08462 8.2285-11.75932 8.21641-17.90802m33.83901 45.16907h-142.41769v-134.025953h142.41769z"/><path d="m696.41152 117.05817-2.28536 1.39661c-11.02776 6.73516-23.02286 10.34457-33.91761 10.33852-23.32516-.0907-38.6818-13.91166-38.74226-34.020388.0242-19.679469 16.06401-34.244091 38.14976-34.292458 11.25145.006 21.43883 2.914134 33.54881 9.552554l2.2249 1.221276v-17.962429l-.95526-.374847c-13.65169-5.386915-24.226-7.787145-34.6673-7.781099-16.14866-.006-30.15705 5.326456-40.13887 14.371152-9.97577 9.050742-15.90681 21.825771-15.89472 36.499219.006 10.22365 4.22005 22.20062 13.25266 31.71085 9.00237 9.51023 22.87776 16.43886 41.90427 16.43281h.0665c15.77985 0 26.72297-3.51268 36.61409-8.39174l.84039-.41112zm28.28281 44.54634h-142.41769v-134.025953h142.41769z"/></g><g transform="matrix(.11807611391 0 0 .11807611391 -7.57705908403 -10.99324338401)"><path d="m303.26952 432.05665h20.29011v149.1468h-18.36751l-99.7214-114.87248v114.87248h-20.06641v-149.1468h17.29133l100.57388 115.83983z"/><path d="m362.04191 432.05665h84.55824v18.99628h-63.20405v45.48346h61.06984v19.11115h-61.06984v46.34198h65.22943v19.00232h-86.58362z"/><path d="m674.49506 432.05665h21.29373l-60.30806 149.79372h-4.69163l-48.76639-121.29325-49.27425 121.29325h-4.58281l-60.11458-149.79372h21.51139l41.10016 102.81087 41.38432-102.81087h20.18733l41.57174 102.81087z"/><path d="m753.64824 518.71282-16.22725-9.86089c-10.18133-6.21521-17.42434-12.32763-21.72903-18.34332-4.3047-6.01569-6.46309-12.93827-6.46309-20.76774 0-11.74722 4.07495-21.28164 12.23089-28.60929 8.14386-7.3337 18.73631-11.00358 31.76527-11.00358 12.44855 0 23.87533 3.50059 34.27432 10.48967v24.2381c-10.74965-10.33853-22.32154-15.50779-34.70358-15.50779-6.977 0-12.70853 1.61426-17.1946 4.84278-4.48003 3.22248-6.72911 7.35184-6.72911 12.38809 0 4.46189 1.65658 8.65172 4.95766 12.54529 3.30711 3.90566 8.61543 7.99875 15.93704 12.27926l16.31189 9.65534c18.19218 10.87056 27.28524 24.70363 27.28524 41.49919 0 11.95883-4.0024 21.67462-12.0072 29.14738-8.01084 7.47276-18.42192 11.20309-31.23322 11.20309-14.72786 0-28.14376-4.5163-40.24769-13.57914v-27.12199c11.52352 14.61299 24.87292 21.91646 40.03608 21.91646 6.69284 0 12.26113-1.86215 16.71093-5.58643 4.44979-3.72429 6.67469-8.38569 6.67469-13.99026 0-9.07493-6.55378-17.68432-19.64924-25.83422"/></g></g></svg>