<svg width="16" height="16" xmlns="http://www.w3.org/2000/svg" class="bi bi-boombox-fill" fill="#00BD7E">
 <g>
  <title>Layer 1</title>
  <path id="svg_1" d="m14,0a0.5,0.5 0 0 1 0.5,0.5l0,1.5l0.5,0a1,1 0 0 1 1,1l0,2l-16,0l0,-2a1,1 0 0 1 1,-1l12.5,0l0,-1.5a0.5,0.5 0 0 1 0.5,-0.5zm-12,3.5a0.5,0.5 0 1 0 1,0a0.5,0.5 0 0 0 -1,0zm2,0a0.5,0.5 0 1 0 1,0a0.5,0.5 0 0 0 -1,0zm7.5,0.5a0.5,0.5 0 1 0 0,-1a0.5,0.5 0 0 0 0,1zm1.5,-0.5a0.5,0.5 0 1 0 1,0a0.5,0.5 0 0 0 -1,0zm-3.5,-0.5l-3,0a0.5,0.5 0 0 0 0,1l3,0a0.5,0.5 0 0 0 0,-1zm-3.5,7.5a1.5,1.5 0 1 1 -3,0a1.5,1.5 0 0 1 3,0zm-1.5,0.5a0.5,0.5 0 1 0 0,-1a0.5,0.5 0 0 0 0,1zm7,1a1.5,1.5 0 1 0 0,-3a1.5,1.5 0 0 0 0,3zm0.5,-1.5a0.5,0.5 0 1 1 -1,0a0.5,0.5 0 0 1 1,0z"/>
  <path id="svg_2" d="m0,6l16,0l0,8a1,1 0 0 1 -1,1l-14,0a1,1 0 0 1 -1,-1l0,-8zm2,4.5a2.5,2.5 0 1 0 5,0a2.5,2.5 0 0 0 -5,0zm7,0a2.5,2.5 0 1 0 5,0a2.5,2.5 0 0 0 -5,0z"/>
 </g>

</svg>